<?xml version="1.0" standalone="no"?>
<!DOCTYPE svg PUBLIC "-//W3C//DTD SVG 20010904//EN"
 "http://www.w3.org/TR/2001/REC-SVG-20010904/DTD/svg10.dtd">
<svg version="1.0" xmlns="http://www.w3.org/2000/svg"
 width="1008.000000pt" height="1008.000000pt" viewBox="0 0 1008.000000 1008.000000"
 preserveAspectRatio="xMidYMid meet">

<g transform="translate(0.000000,1008.000000) scale(0.100000,-0.100000)"
fill="#000000" stroke="none">
<path d="M4859 8023 c0 -5 -28 -212 -62 -461 l-62 -454 11 -381 c6 -210 9
-386 8 -392 -2 -5 -24 -174 -49 -375 -85 -673 -134 -861 -328 -1255 -66 -133
-81 -156 -87 -139 -5 12 -20 113 -34 225 -59 459 -111 625 -256 817 -46 61
-92 105 -190 181 l-129 101 -155 0 c-155 0 -156 0 -156 -22 -1 -13 9 -201 21
-418 l22 -395 -56 -130 c-30 -71 -63 -148 -72 -170 l-17 -40 -24 115 c-26 124
-81 309 -121 405 -64 152 -167 286 -277 357 l-59 38 -127 0 -128 0 -4 -102
c-6 -138 -14 -154 -247 -477 -78 -109 -162 -262 -177 -325 -8 -32 -3 -32 -169
-1 -105 19 -188 19 -255 -1 -225 -65 -229 -66 -415 -71 -115 -3 -261 1 -404
11 -124 9 -263 16 -310 16 -76 0 -88 -3 -110 -24 -33 -31 -129 -60 -267 -80
-60 -9 -124 -19 -143 -22 l-34 -5 7 -107 c9 -157 8 -155 70 -147 196 24 359
61 444 100 l55 25 229 -15 c428 -28 664 -18 843 36 148 44 145 44 329 10 115
-21 199 -31 266 -31 l98 0 3 108 c4 101 6 112 45 192 23 47 79 137 125 200
134 185 190 271 222 339 l30 64 29 -33 c15 -19 46 -70 68 -115 105 -214 175
-558 187 -927 l6 -178 77 0 c197 0 282 83 315 309 11 75 30 140 69 239 75 191
133 322 152 343 15 17 15 39 0 291 -9 150 -16 286 -16 301 l0 29 52 -42 c89
-71 162 -182 208 -321 30 -89 55 -221 85 -459 30 -233 45 -319 81 -440 29 -95
174 -405 184 -393 14 16 354 659 396 749 175 379 230 604 319 1329 19 160 38
296 40 304 3 7 0 185 -6 395 l-12 381 29 213 c16 125 31 206 35 195 9 -25 55
-313 68 -428 50 -439 75 -962 91 -1905 12 -721 26 -1166 45 -1485 8 -132 15
-395 15 -585 1 -458 14 -595 69 -696 34 -64 86 -94 162 -94 l55 0 56 93 c93
155 139 273 228 585 27 95 86 295 129 445 151 514 236 858 285 1152 32 189 56
373 56 430 0 76 18 59 54 -52 79 -248 135 -610 136 -880 l0 -83 100 0 c156 0
250 39 401 166 158 134 351 387 434 569 24 52 40 75 52 75 10 0 86 -68 168
-150 173 -173 169 -171 377 -192 130 -13 270 -2 568 48 170 28 259 28 600 4
158 -12 452 -9 748 7 l122 6 0 135 0 134 -42 -6 c-24 -3 -161 -10 -306 -17
-208 -8 -309 -8 -480 3 -350 21 -557 17 -747 -15 -239 -41 -337 -49 -446 -37
l-94 11 -172 171 -171 171 -99 -6 c-184 -11 -225 -40 -312 -220 -64 -133 -138
-242 -252 -373 -65 -75 -185 -182 -193 -173 -2 2 -11 69 -20 149 -48 411 -159
756 -290 906 -26 29 -71 65 -108 84 -58 32 -71 35 -170 38 l-108 4 0 -181 c0
-479 -90 -944 -370 -1901 -49 -168 -104 -357 -122 -420 l-33 -115 -6 400 c-3
220 -9 423 -13 450 -13 100 -26 546 -41 1330 -19 1002 -32 1333 -70 1785 -54
623 -136 971 -263 1112 -55 61 -120 88 -214 88 -43 0 -78 -3 -79 -7z"/>
</g>
</svg>
